<?xml version="1.0" encoding="utf-8"?>
<!-- Svg Vector Icons : http://www.onlinewebfonts.com/icon -->
<!DOCTYPE svg PUBLIC "-//W3C//DTD SVG 1.1//EN" "http://www.w3.org/Graphics/SVG/1.1/DTD/svg11.dtd">
<svg version="1.1" xmlns="http://www.w3.org/2000/svg" xmlns:xlink="http://www.w3.org/1999/xlink" x="0px" y="0px" viewBox="0 0 1000 1000" enable-background="new 0 0 1000 1000" xml:space="preserve">
<metadata> Svg Vector Icons : http://www.onlinewebfonts.com/icon </metadata>
<g><path d="M821,127.2H483.1c0-55.9-45.5-101.4-101.4-101.4h-67.6c-55.9,0-101.4,45.5-101.4,101.4H111.4C55.5,127.2,10,172.7,10,228.6v540.7c0,55.9,45.5,101.4,101.4,101.4h441.3c9.6,0,18.8-4.1,25.2-11.3c6.4-7.2,9.5-16.7,8.4-26.3c-1-8.9-1.7-17.8-1.7-27c0-149.6,139.6-269,295.6-228.8c10.1,2.5,20.9,0.4,29.1-6c8.2-6.4,13.1-16.3,13.1-26.7V228.6C922.4,172.7,876.9,127.2,821,127.2z M449.3,701.7c-111.8,0-202.8-90.9-202.8-202.8c0-111.8,90.9-202.8,202.8-202.8S652.1,387.1,652.1,499C652.1,610.8,561.1,701.7,449.3,701.7z M770.3,363.8c-28,0-50.7-22.7-50.7-50.7c0-28,22.7-50.7,50.7-50.7s50.7,22.7,50.7,50.7C821,341.1,798.3,363.8,770.3,363.8z"/><path d="M821,636.2c-93.3,0-169,75.6-169,169s75.6,169,169,169c93.3,0,169-75.6,169-169S914.4,636.2,821,636.2z M888.6,836.9h-33.8v33.8c0,18.7-15.1,33.8-33.8,33.8c-18.7,0-33.8-15.1-33.8-33.8v-33.8h-33.8c-18.7,0-33.8-15.1-33.8-33.8c0-18.7,15.1-33.8,33.8-33.8h33.8v-33.8c0-18.7,15.1-33.8,33.8-33.8c18.7,0,33.8,15.1,33.8,33.8v33.8h33.8c18.7,0,33.8,15.1,33.8,33.8C922.4,821.8,907.3,836.9,888.6,836.9z"/></g>
</svg>